<svg width="69" height="69" viewBox="0 0 69 69" fill="none" xmlns="http://www.w3.org/2000/svg">
<path d="M5.34736 62.7099H62.7099V5.34736H5.34736V62.7099ZM68.0199 68.0199H0V0H68.0199V68.0199Z" fill="#F2A900"/>
<path d="M11.3306 45.7329C11.3306 38.3663 16.9397 33.3555 23.5584 33.3555C30.6633 33.3555 33.8044 37.9175 34.5897 41.3578L29.6163 42.9284C29.2423 41.283 27.7466 38.5159 23.5584 38.5159C20.3799 38.5159 16.8275 40.7969 16.8275 45.7703C16.8275 50.2202 20.1182 52.8004 23.6332 52.8004C27.7466 52.8004 29.3919 50.0706 29.8406 48.3505L34.8888 49.7715C34.1036 53.0622 30.9625 58.073 23.6332 58.073C16.8275 58.0356 11.3306 53.0996 11.3306 45.7329Z" fill="white"/>
<path d="M49.3603 38.8898V57.512H44.0877V38.8898H36.7959V33.8416H56.6895V38.8898H49.3603Z" fill="white"/>
</svg>
